# xmcd
#
# Track frame offsets: 
#        150
#        12992
#        27584
#        50430
#        63421
#        73828
#        88067
#        105812
#        120126
#        139669
#        156313
#        166924
#        184463
#
# Disc length: 2690 seconds
#
# Revision: 0
# Processed by: cddbd v1.5.2PL0 Copyright (c) Steve Scherf et al.
# Submitted via: ExactAudioCopy v0.95b4
#
DISCID=ab0a800d
DTITLE=John Fogerty - The Long Road Home - In Concert [CD2)
DYEAR=2006
DGENRE=Rock
TTITLE0=Have You Ever Seen The Rain?
TTITLE1=Tombstone Shadow
TTITLE2=Keep On Chooglin'
TTITLE3=Sweet Hitch Hiker
TTITLE4=Hey Tonight
TTITLE5=Down On The Corner
TTITLE6=Centerfield
TTITLE7=Up Around The Band
TTITLE8=The Old Man Down The Road
TTITLE9=Fortunate Son
TTITLE10=Bad Moon Rising
TTITLE11=Rockin' All Over The World
TTITLE12=Proud Mary
EXTD=
EXTT0=
EXTT1=
EXTT2=
EXTT3=
EXTT4=
EXTT5=
EXTT6=
EXTT7=
EXTT8=
EXTT9=
EXTT10=
EXTT11=
EXTT12=
PLAYORDER=
